<svg width="1280" height="320" viewBox="0 0 1280 320" fill="none" xmlns="http://www.w3.org/2000/svg">
<path d="M0 20C0 8.95431 8.95431 0 20 0H1260C1271.05 0 1280 8.95431 1280 20V300C1280 311.046 1271.05 320 1260 320H20C8.95431 320 0 311.046 0 300V20Z" fill="#2B323C"/>
<path d="M0 20C0 8.95428 8.95431 0 20 0H1260C1271.05 0 1280 8.9543 1280 20V39.9506C1280 51.0156 1271.02 59.9778 1259.95 59.9505L19.9506 56.8913C8.92424 56.8641 0 47.9178 0 36.8914V20Z" fill="#505762"/>
<path d="M0 30H1280V60L0 58.4211V30Z" fill="#505762"/>
<circle cx="32.5" cy="29.5" r="12.5" fill="#FF5861"/>
<circle cx="72.5" cy="29.5" r="12.5" fill="#FFBE00"/>
<circle cx="112.5" cy="29.5" r="12.5" fill="#00AA6E"/>
<path d="M98.1782 99.3193V101.761H83.127V99.3193H98.1782ZM113.242 99.3193V101.761H98.1904V99.3193H113.242ZM128.305 99.3193V101.761H113.254V99.3193H128.305ZM143.369 99.3193V101.761H128.317V99.3193H143.369ZM278.94 99.3193V101.761H263.889V99.3193H278.94ZM474.765 99.3193V101.761H459.714V99.3193H474.765ZM76.9624 106.896V131.896H74.1914V106.896H76.9624ZM128.305 128.319V130.761H113.254V128.319H128.305ZM147.458 107.775L157.053 128.319H154.331L144.736 107.775H147.458ZM257.724 106.896V131.896H254.953V106.896H257.724ZM287.851 106.896V131.896H285.08V106.896H287.851ZM455.93 107.03C454.855 108.975 454.058 110.859 453.537 112.682C453.016 114.505 452.756 116.328 452.756 118.151C452.756 119.958 453.016 121.78 453.537 123.62C454.058 125.451 454.855 127.343 455.93 129.296H453.146C451.853 127.416 450.892 125.565 450.266 123.742C449.639 121.911 449.326 120.047 449.326 118.151C449.326 116.263 449.639 114.403 450.266 112.572C450.9 110.733 451.861 108.886 453.146 107.03H455.93ZM474.765 128.319V130.761H459.714V128.319H474.765ZM478.549 107.03H481.333C482.618 108.886 483.575 110.733 484.201 112.572C484.836 114.403 485.153 116.263 485.153 118.151C485.153 120.047 484.84 121.911 484.213 123.742C483.587 125.565 482.626 127.416 481.333 129.296H478.549C479.624 127.343 480.421 125.451 480.942 123.62C481.463 121.78 481.723 119.958 481.723 118.151C481.723 116.328 481.463 114.505 480.942 112.682C480.421 110.859 479.624 108.975 478.549 107.03ZM76.9624 135.896V160.896H74.1914V135.896H76.9624ZM107.089 135.896V160.896H104.318V135.896H107.089ZM128.305 157.319V159.761H113.254V157.319H128.305ZM132.089 136.03H134.873C136.158 137.886 137.115 139.733 137.741 141.572C138.376 143.403 138.693 145.263 138.693 147.151C138.693 149.047 138.38 150.911 137.753 152.742C137.127 154.565 136.167 156.416 134.873 158.296H132.089C133.164 156.343 133.961 154.451 134.482 152.62C135.003 150.78 135.263 148.958 135.263 147.151C135.263 145.328 135.003 143.505 134.482 141.682C133.961 139.859 133.164 137.975 132.089 136.03ZM167.343 135.896V160.896H164.572V135.896H167.343ZM188.559 157.319V159.761H173.508V157.319H188.559ZM248.813 157.319V159.761H233.762V157.319H248.813ZM257.724 135.896V160.896H254.953V135.896H257.724ZM287.851 135.896V160.896H285.08V135.896H287.851ZM309.067 157.319V159.761H294.016V157.319H309.067ZM339.194 157.319V159.761H324.143V157.319H339.194ZM354.257 157.319V159.761H339.206V157.319H354.257ZM369.321 157.319V159.761H354.27V157.319H369.321ZM414.511 157.319V159.761H399.46V157.319H414.511ZM429.575 157.319V159.761H414.523V157.319H429.575ZM444.638 157.319V159.761H429.587V157.319H444.638ZM474.765 157.319V159.761H459.714V157.319H474.765ZM504.892 157.319V159.761H489.841V157.319H504.892ZM519.956 157.319V159.761H504.904V157.319H519.956ZM535.019 157.319V159.761H519.968V157.319H535.019ZM550.083 157.319V159.761H535.031V157.319H550.083ZM565.146 157.319V159.761H550.095V157.319H565.146ZM580.209 157.319V159.761H565.158V157.319H580.209ZM595.273 157.319V159.761H580.222V157.319H595.273ZM76.9624 164.896V189.896H74.1914V164.896H76.9624ZM128.305 186.319V188.761H113.254V186.319H128.305ZM157.358 172.696L147.653 176.175L157.358 179.63V182.669L144.455 177.604V174.723L157.358 169.645V172.696ZM167.343 164.896V189.896H164.572V164.896H167.343ZM197.47 164.896V189.896H194.699V164.896H197.47ZM227.597 164.896V189.896H224.826V164.896H227.597ZM257.724 164.896V189.896H254.953V164.896H257.724ZM294.003 186.319V188.761H278.952V186.319H294.003ZM309.067 186.319V188.761H294.016V186.319H309.067ZM320.053 165.775H322.751L313.156 186.319H310.458L320.053 165.775ZM354.257 186.319V188.761H339.206V186.319H354.257ZM373.41 165.775L383.005 186.319H380.283L370.688 165.775H373.41ZM395.371 165.775H398.068L388.474 186.319H385.776L395.371 165.775ZM429.575 186.319V188.761H414.523V186.319H429.575ZM444.638 186.319V188.761H429.587V186.319H444.638ZM453.549 164.896V189.896H450.778V164.896H453.549ZM483.676 164.896V189.896H480.905V164.896H483.676ZM504.892 186.319V188.761H489.841V186.319H504.892ZM546.005 165.775H548.703L539.108 186.319H536.411L546.005 165.775ZM580.209 186.319V188.761H565.158V186.319H580.209ZM599.362 165.775L608.957 186.319H606.235L596.64 165.775H599.362ZM76.9624 193.896V218.896H74.1914V193.896H76.9624ZM107.089 193.896V218.896H104.318V193.896H107.089ZM128.305 215.319V217.761H113.254V215.319H128.305ZM132.089 194.03H134.873C136.158 195.886 137.115 197.733 137.741 199.572C138.376 201.403 138.693 203.263 138.693 205.151C138.693 207.047 138.38 208.911 137.753 210.742C137.127 212.565 136.167 214.416 134.873 216.296H132.089C133.164 214.343 133.961 212.451 134.482 210.62C135.003 208.78 135.263 206.958 135.263 205.151C135.263 203.328 135.003 201.505 134.482 199.682C133.961 197.859 133.164 195.975 132.089 194.03ZM167.343 193.896V218.896H164.572V193.896H167.343ZM197.47 193.896V218.896H194.699V193.896H197.47ZM218.686 215.319V217.761H203.635V215.319H218.686ZM227.597 193.896V218.896H224.826V193.896H227.597ZM257.724 193.896V218.896H254.953V193.896H257.724ZM287.851 193.896V218.896H285.08V193.896H287.851ZM302.915 193.896V218.896H300.144V193.896H302.915ZM354.257 215.319V217.761H339.206V215.319H354.257ZM369.321 215.319V217.761H354.27V215.319H369.321ZM380.307 194.775H383.005L373.41 215.319H370.712L380.307 194.775ZM388.474 194.775L398.068 215.319H395.346L385.751 194.775H388.474ZM414.511 215.319V217.761H399.46V215.319H414.511ZM429.575 215.319V217.761H414.523V215.319H429.575ZM448.728 194.775L458.322 215.319H455.6L446.005 194.775H448.728ZM483.676 193.896V218.896H480.905V193.896H483.676ZM500.815 194.775H503.513L493.918 215.319H491.22L500.815 194.775ZM530.942 194.775H533.64L524.045 215.319H521.347L530.942 194.775ZM580.209 215.319V217.761H565.158V215.319H580.209ZM595.273 215.319V217.761H580.222V215.319H595.273ZM606.259 194.775H608.957L599.362 215.319H596.665L606.259 194.775ZM76.9624 222.896V247.896H74.1914V222.896H76.9624ZM98.1782 244.319V246.761H83.127V244.319H98.1782ZM113.242 244.319V246.761H98.1904V244.319H113.242ZM128.305 244.319V246.761H113.254V244.319H128.305ZM143.369 244.319V246.761H128.317V244.319H143.369ZM154.355 223.775H157.053L147.458 244.319H144.76L154.355 223.775ZM177.585 223.775L187.18 244.319H184.458L174.863 223.775H177.585ZM203.623 244.319V246.761H188.571V244.319H203.623ZM218.686 244.319V246.761H203.635V244.319H218.686ZM224.326 237.52H228.146V240.828L225.754 245.503H223.117L224.326 240.828V237.52ZM257.724 222.896V247.896H254.953V222.896H257.724ZM267.966 223.775L277.561 244.319H274.838L265.244 223.775H267.966ZM294.003 244.319V246.761H278.952V244.319H294.003ZM309.067 244.319V246.761H294.016V244.319H309.067ZM313.156 223.775L322.751 244.319H320.029L310.434 223.775H313.156ZM339.194 244.319V246.761H324.143V244.319H339.194ZM354.257 244.319V246.761H339.206V244.319H354.257ZM369.321 244.319V246.761H354.27V244.319H369.321ZM378.232 222.896V247.896H375.461V222.896H378.232ZM393.295 222.896V247.896H390.524V222.896H393.295ZM414.511 244.319V246.761H399.46V244.319H414.511ZM429.575 244.319V246.761H414.523V244.319H429.575ZM444.638 244.319V246.761H429.587V244.319H444.638ZM455.625 223.775H458.322L448.728 244.319H446.03L455.625 223.775ZM474.765 244.319V246.761H459.714V244.319H474.765ZM485.751 223.775H488.449L478.854 244.319H476.157L485.751 223.775ZM504.892 244.319V246.761H489.841V244.319H504.892ZM519.956 244.319V246.761H504.904V244.319H519.956ZM535.019 244.319V246.761H519.968V244.319H535.019ZM539.108 223.775L548.703 244.319H545.981L536.386 223.775H539.108ZM565.146 244.319V246.761H550.095V244.319H565.146ZM580.209 244.319V246.761H565.158V244.319H580.209ZM595.273 244.319V246.761H580.222V244.319H595.273ZM604.184 222.896V247.896H601.413V222.896H604.184ZM203.623 273.319V275.761H188.571V273.319H203.623ZM218.686 273.319V275.761H203.635V273.319H218.686ZM229.672 252.775H232.37L222.775 273.319H220.078L229.672 252.775ZM257.724 251.896V276.896H254.953V251.896H257.724ZM182.407 280.896V305.896H179.636V280.896H182.407ZM203.623 302.319V304.761H188.571V302.319H203.623ZM218.686 302.319V304.761H203.635V302.319H218.686ZM233.75 302.319V304.761H218.698V302.319H233.75ZM244.736 281.775H247.434L237.839 302.319H235.141L244.736 281.775Z" fill="white"/>
</svg>
